# Blender 4.2.14 LTS
# www.blender.org
o F-22
v -0.380334 0.001910 0.885739
v -0.433102 0.035470 0.322026
v -0.352922 0.017201 -0.907053
v -0.183264 0.048117 1.047128
v -0.142520 0.114239 0.362277
v -0.101088 0.131116 1.125941
v -0.056765 0.242528 1.199510
v -0.067674 0.098373 1.529867
v -0.146393 0.011323 1.566378
v -0.049581 0.050007 1.762624
v -0.103633 -0.007335 1.789931
v -0.231401 0.083896 -1.226703
v -0.043034 0.083896 -1.226703
v -0.142520 0.083896 -1.304689
v -0.299735 0.071221 -0.560223
v -0.231401 -0.185506 0.779234
v -0.231401 -0.168000 -0.408812
v -0.043034 -0.023036 -1.226703
v -0.231464 -0.023036 -1.226703
v -0.142520 -0.023036 -1.304556
v -0.406435 -0.009523 -0.442164
v -1.161559 0.035470 -0.875984
v -1.316844 0.035470 -0.727243
v -1.316844 0.035470 -0.494141
v -0.874979 0.035470 -1.376274
v -0.043034 0.035470 -1.417826
v -0.041089 0.247035 1.016889
v -0.260759 0.071705 -0.910201
v -0.142520 0.114239 -0.910201
v -0.291132 0.053931 -1.347072
v -0.324121 0.058716 -0.949411
v -0.582384 0.618995 -1.086356
v -0.582384 0.618995 -0.945513
v -0.582384 0.618995 -0.820765
v -0.526090 0.035470 -1.074394
v -0.291132 0.017010 -1.347072
v -0.231401 0.035470 -1.420792
v -0.554642 0.035470 -1.704863
v -0.874979 0.035470 -1.607890
v -0.091107 0.156204 1.142508
v -0.028011 0.218761 0.821684
v -0.065163 0.131564 1.453805
v -0.042103 0.180467 0.835981
v 0.380334 0.001910 0.885739
v 0.611915 0.047701 -0.187093
v 0.352922 0.017201 -0.907053
v 0.183264 0.048117 1.047128
v 0.142520 0.114239 0.362277
v 0.101088 0.131116 1.125941
v 0.056765 0.242528 1.199510
v 0.067674 0.098373 1.529867
v 0.146393 0.011323 1.566378
v 0.049581 0.050007 1.762624
v 0.103633 -0.007335 1.789931
v 0.231401 0.083896 -1.226703
v 0.043034 0.083896 -1.226703
v 0.142520 0.083896 -1.304689
v 0.596731 0.051772 -0.287539
v 0.231401 -0.185506 0.779234
v 0.231401 -0.168000 -0.408812
v 0.043034 -0.023036 -1.226703
v 0.231464 -0.023036 -1.226703
v 0.142520 -0.023036 -1.304556
v 0.406435 -0.009523 -0.442164
v 1.161559 0.035470 -0.875984
v 1.316844 0.035470 -0.727243
v 0.712531 0.047701 -0.280016
v 0.874979 0.035470 -1.376274
v 0.043034 0.035470 -1.417826
v 0.041089 0.247035 1.016889
v 0.260759 0.071705 -0.910201
v 0.142520 0.114239 -0.910201
v 0.291132 0.053931 -1.347072
v 0.324121 0.058716 -0.949411
v 0.582384 0.618995 -1.086356
v 0.582384 0.618995 -0.945513
v 0.582384 0.618995 -0.820765
v 0.526090 0.035470 -1.074394
v 0.291132 0.017010 -1.347072
v 0.231401 0.035470 -1.420792
v 0.554642 0.035470 -1.704863
v 0.874979 0.035470 -1.607890
v 0.091107 0.156204 1.142508
v 0.028011 0.218761 0.821684
v 0.065163 0.131564 1.453805
v 0.042103 0.180467 0.835981
v 0.000000 0.094558 -0.910201
v -0.000000 0.158204 0.403590
v -0.000000 0.268974 1.236021
v -0.000000 0.113851 1.568094
v -0.000000 0.062518 1.791648
v -0.000000 -0.030625 2.014232
v -0.000000 -0.120168 1.566378
v -0.000000 -0.082458 1.789931
v -0.000000 -0.169810 0.919486
v 0.000000 -0.167592 -0.408812
v 0.000000 0.078200 -1.226703
v 0.000000 -0.023036 -1.226703
v 0.000000 0.035470 -1.442453
v -0.000000 0.266178 1.016889
v -0.000000 0.151710 1.487051
v -0.000000 0.231006 0.817113
v 0.433102 0.035470 0.322026
v 0.299735 0.071221 -0.560223
v 1.316844 0.035470 -0.494141
v 0.614859 0.137349 -0.183905
v 0.599675 0.141420 -0.284352
v 0.715475 0.137349 -0.276828
vn 0.2856 -0.9554 -0.0752
vn 0.2821 -0.9582 0.0464
vn 0.6764 -0.7335 0.0672
vn 0.9454 -0.3076 0.1079
vn 0.4170 -0.8951 0.1576
vn 0.5600 -0.7660 -0.3158
vn 0.9457 -0.3081 -0.1032
vn 0.7527 -0.6507 -0.0996
vn 0.6685 -0.7196 -0.1879
vn 0.3323 -0.9180 -0.2166
vn 0.5931 -0.7254 -0.3493
vn 0.4170 -0.8385 -0.3509
vn 0.2639 -0.9645 -0.0000
vn 0.6668 0.7424 -0.0656
vn 0.5769 0.7958 -0.1839
vn 0.7496 0.6600 -0.0506
vn 0.3487 0.6744 -0.6508
vn -0.0018 0.9999 0.0147
vn 0.2616 -0.9652 0.0004
vn 0.0351 -0.9994 -0.0000
vn 0.0190 -0.9980 0.0610
vn 0.7728 0.6338 -0.0346
vn 0.7281 0.6854 0.0101
vn -0.0011 -0.9703 0.2421
vn 0.6595 0.0009 0.7517
vn -0.6169 0.0010 0.7870
vn 0.0525 0.9970 -0.0569
vn 0.0448 0.9970 0.0625
vn -1.0000 0.0006 -0.0001
vn 0.0300 -0.9991 0.0313
vn -0.0000 0.9847 0.1740
vn -0.0000 0.9562 0.2927
vn -0.1310 -0.9901 0.0512
vn 1.0000 -0.0000 -0.0000
vn 0.1105 -0.9749 0.1931
vn 0.0209 0.9975 0.0670
vn 0.0372 0.9986 0.0388
vn 0.6176 0.7744 0.1372
vn 0.8997 0.4308 -0.0702
vn 0.9082 0.4186 -0.0000
vn 0.1510 0.9734 0.1725
vn -0.0017 0.9872 0.1596
vn -0.1405 0.9737 0.1795
vn 0.3385 -0.9410 -0.0048
vn -0.1368 -0.9906 -0.0000
vn 0.0335 -0.9987 -0.0387
vn 0.0985 -0.9948 0.0258
vn 0.4386 -0.8987 0.0061
vn 0.1018 -0.9946 0.0204
vn -0.1262 -0.9816 0.1436
vn -0.8621 -0.5067 -0.0000
vn -0.8704 -0.4857 0.0803
vn 0.0602 0.9557 0.2881
vn 0.0335 0.9987 -0.0387
vn 0.0128 0.9990 0.0421
vn 0.0929 0.9956 0.0126
vn 0.4629 0.8840 0.0646
vn 0.0316 -0.9995 -0.0000
vn 0.0316 0.9995 -0.0000
vn -0.0600 -0.9953 0.0766
vn 0.0671 -0.9948 0.0765
vn -0.1366 -0.9893 0.0519
vn 0.8967 -0.4290 0.1094
vn 0.4344 -0.8307 -0.3481
vn 0.9107 -0.4073 0.0681
vn 0.9309 -0.3445 0.1215
vn 0.4223 -0.9064 0.0116
vn 0.4153 -0.9096 0.0132
vn 0.4076 -0.8274 -0.3865
vn 0.9458 -0.3081 -0.1032
vn -0.1262 0.9816 0.1436
vn -0.8649 -0.4924 -0.0970
vn 0.0128 -0.9990 0.0421
vn 0.8994 0.4316 0.0694
vn 0.6540 0.7472 0.1182
vn -0.1273 -0.9615 0.2436
vn 0.1481 0.9545 0.2588
vn 0.0494 0.9988 -0.0000
vn -0.6163 -0.0000 0.7875
vn 0.6586 -0.0004 0.7525
vn 0.6731 0.7392 -0.0200
vn 0.0328 -0.9988 -0.0355
vn -0.0687 0.9976 0.0017
vn 0.3739 0.6647 -0.6468
vn 0.6682 0.7439 0.0053
vn 0.5815 0.8022 -0.1353
vn 0.3383 -0.9403 0.0364
vn 0.3527 -0.9120 -0.2094
vn 0.6839 -0.7019 -0.1990
vn 0.7123 -0.6924 -0.1150
vn 0.4444 -0.8117 -0.3791
vn 0.3132 -0.9469 -0.0728
vn 0.2714 -0.9589 -0.0825
vn -0.2856 -0.9554 -0.0752
vn -0.2821 -0.9582 0.0464
vn -0.6764 -0.7335 0.0672
vn -0.9454 -0.3076 0.1079
vn -0.4170 -0.8951 0.1576
vn -0.5600 -0.7660 -0.3158
vn -0.9457 -0.3081 -0.1032
vn -0.7527 -0.6507 -0.0996
vn -0.6685 -0.7196 -0.1879
vn -0.3323 -0.9180 -0.2166
vn -0.5931 -0.7254 -0.3493
vn -0.4170 -0.8385 -0.3509
vn -0.2639 -0.9645 -0.0000
vn -0.6668 0.7424 -0.0656
vn -0.5769 0.7958 -0.1839
vn -0.7496 0.6600 -0.0506
vn -0.3487 0.6744 -0.6508
vn 0.0018 0.9999 0.0147
vn -0.2616 -0.9652 0.0004
vn -0.0351 -0.9994 -0.0000
vn -0.0190 -0.9980 0.0610
vn -0.7728 0.6338 -0.0346
vn -0.7281 0.6854 0.0101
vn 0.0011 -0.9703 0.2421
vn -0.6595 0.0009 0.7517
vn 0.6169 0.0010 0.7870
vn -0.0525 0.9970 -0.0569
vn -0.0448 0.9970 0.0625
vn 1.0000 0.0006 -0.0001
vn -0.0300 -0.9991 0.0313
vn 0.1310 -0.9901 0.0512
vn -1.0000 -0.0000 -0.0000
vn -0.1105 -0.9749 0.1931
vn -0.0209 0.9975 0.0670
vn -0.0372 0.9986 0.0388
vn -0.6176 0.7744 0.1372
vn -0.8997 0.4308 -0.0702
vn -0.9082 0.4186 -0.0000
vn -0.1510 0.9734 0.1725
vn 0.0017 0.9872 0.1596
vn 0.1405 0.9737 0.1795
vn -0.3385 -0.9410 -0.0048
vn 0.1368 -0.9906 -0.0000
vn -0.0335 -0.9987 -0.0387
vn -0.0985 -0.9948 0.0258
vn -0.4386 -0.8987 0.0061
vn -0.1018 -0.9946 0.0204
vn 0.1262 -0.9816 0.1436
vn 0.8621 -0.5067 -0.0000
vn 0.8704 -0.4857 0.0803
vn -0.0602 0.9557 0.2881
vn -0.0335 0.9987 -0.0387
vn -0.0128 0.9990 0.0421
vn -0.0929 0.9956 0.0126
vn -0.4629 0.8840 0.0646
vn -0.0316 -0.9995 -0.0000
vn -0.0316 0.9995 -0.0000
vn 0.0600 -0.9953 0.0766
vn -0.0671 -0.9948 0.0765
vn 0.1366 -0.9893 0.0519
vn -0.8967 -0.4290 0.1094
vn -0.4344 -0.8307 -0.3481
vn -0.9107 -0.4073 0.0681
vn -0.9309 -0.3445 0.1215
vn -0.4223 -0.9064 0.0116
vn -0.4153 -0.9096 0.0132
vn -0.4076 -0.8274 -0.3865
vn -0.9458 -0.3081 -0.1032
vn 0.1262 0.9816 0.1436
vn 0.8649 -0.4924 -0.0970
vn -0.0128 -0.9990 0.0421
vn -0.8994 0.4316 0.0694
vn -0.6540 0.7472 0.1182
vn 0.1273 -0.9615 0.2436
vn -0.1481 0.9545 0.2588
vn -0.0494 0.9988 -0.0000
vn 0.6163 -0.0000 0.7875
vn -0.6586 -0.0004 0.7525
vn -0.6731 0.7392 -0.0200
vn -0.6777 0.0483 -0.7338
vn 0.0687 0.9976 0.0017
vn -0.3739 0.6647 -0.6468
vn -0.6682 0.7439 0.0053
vn -0.5815 0.8022 -0.1353
vn -0.3383 -0.9403 0.0364
vn -0.3527 -0.9120 -0.2094
vn -0.6839 -0.7019 -0.1990
vn -0.7123 -0.6924 -0.1150
vn -0.4444 -0.8117 -0.3791
vn -0.3132 -0.9469 -0.0728
vn -0.2714 -0.9589 -0.0825
vn -0.0328 -0.9988 -0.0355
vn -0.0660 -0.0333 0.9973
vn 0.9882 -0.0271 -0.1505
vt 0.302940 0.699066
vt 0.442081 0.762279
vt 0.260042 0.751449
vt 0.780315 0.800162
vt 0.431099 0.800162
vt 0.239093 0.773292
vt 0.316239 0.628907
vt 0.320312 0.648438
vt 0.269531 0.648438
vt 0.268080 0.668033
vt 0.209833 0.668033
vt 0.152344 0.648438
vt 0.218750 0.648438
vt 0.234686 0.622186
vt 0.122021 0.761249
vt 0.069858 0.786983
vt 0.062599 0.772615
vt 0.121565 0.800162
vt 0.131726 0.782173
vt 0.002978 0.800162
vt 0.062143 0.800162
vt 0.687288 0.720490
vt 0.780315 0.762279
vt 0.117476 0.888175
vt 0.176898 0.858183
vt 0.176898 0.893135
vt 0.057855 0.881984
vt 0.117476 0.868207
vt 0.314919 0.902915
vt 0.348847 0.844988
vt 0.350939 0.448650
vt 0.338144 0.510748
vt 0.289431 0.452822
vt 0.329981 0.132766
vt 0.645773 0.071258
vt 0.645773 0.132766
vt 0.452780 0.685040
vt 0.669723 0.450134
vt 0.731683 0.450134
vt 0.771220 0.491410
vt 0.823959 0.660323
vt 0.507656 0.899553
vt 0.357817 0.890633
vt 0.386127 0.840816
vt 0.701919 0.845469
vt 0.896439 0.722777
vt 0.916034 0.738294
vt 0.864444 0.738294
vt 0.445843 0.497454
vt 0.469468 0.469031
vt 0.469468 0.497454
vt 0.495912 0.497454
vt 0.654638 0.182832
vt 0.668454 0.424826
vt 0.451511 0.189920
vt 0.654638 0.179292
vt 0.778209 0.165068
vt 0.822690 0.211097
vt 0.864444 0.469031
vt 0.864444 0.497454
vt 0.916034 0.484582
vt 0.863174 0.082019
vt 0.863174 0.071258
vt 0.913977 0.082019
vt 0.864444 0.800162
vt 0.864444 0.789083
vt 0.809306 0.497454
vt 0.809306 0.469031
vt 0.860108 0.484582
vt 0.915246 0.789083
vt 0.921792 0.800162
vt 0.822690 0.214637
vt 0.769951 0.383550
vt 0.730414 0.424826
vt 0.834355 0.894697
vt 0.919320 0.884002
vt 0.141653 0.276624
vt 0.107458 0.425551
vt 0.038204 0.279948
vt 0.178054 0.425551
vt 0.140617 0.425551
vt 0.883868 0.109141
vt 0.863174 0.132783
vt 0.780315 0.730850
vt 0.904201 0.567586
vt 0.790737 0.714008
vt 0.991542 0.652734
vt 0.385137 0.280077
vt 0.361364 0.425551
vt 0.394523 0.425551
vt 0.431960 0.425551
vt 0.501261 0.275352
vt 0.895170 0.148643
vt 0.914765 0.132766
vt 0.902932 0.303834
vt 0.990273 0.218686
vt 0.964497 0.303834
vt 0.965766 0.567586
vt 0.885173 0.762279
vt 0.151941 0.583698
vt 0.239090 0.583579
vt 0.234686 0.590248
vt 0.316239 0.596969
vt 0.431096 0.590779
vt 0.321182 0.614322
vt 0.319967 0.606876
vt 0.431099 0.614322
vt 0.143107 0.601016
vt 0.131726 0.583028
vt 0.321182 0.668033
vt 0.121565 0.601016
vt 0.131723 0.574876
vt 0.292110 0.279948
vt 0.247354 0.275352
vt 0.710784 0.887594
vt 0.920523 0.071258
vt 0.495912 0.469031
vt 0.445826 0.469031
vt 0.292701 0.071258
vt 0.390527 0.498466
vt 0.143107 0.668033
vt 0.612807 0.610765
vt 0.588107 0.637510
vt 0.614807 0.641546
s 0
f 1/1/1 5/2/1 4/3/1
f 5/2/2 87/4/2 88/5/2
f 4/3/3 88/5/3 6/6/3
f 43/7/4 41/8/4 27/9/4
f 41/8/5 100/10/5 27/9/5
f 89/11/6 42/12/6 7/13/6
f 7/13/7 42/12/7 40/14/7
f 6/6/8 9/15/8 4/3/8
f 9/15/9 10/16/9 11/17/9
f 90/18/10 10/16/10 8/19/10
f 11/17/11 10/16/11 92/20/11
f 10/16/12 91/21/12 92/20/12
f 15/22/13 29/23/13 5/2/13
f 11/24/14 93/25/14 9/26/14
f 11/24/15 92/27/15 94/28/15
f 4/29/16 93/25/16 95/30/16
f 16/31/17 4/32/17 95/33/17
f 16/34/18 96/35/18 17/36/18
f 5/2/19 2/37/19 15/22/19
f 15/22/20 24/38/20 23/39/20
f 15/22/21 22/40/21 35/41/21
f 2/42/22 1/43/22 16/44/22
f 17/45/23 2/42/23 16/44/23
f 30/46/24 37/47/24 12/48/24
f 12/49/25 20/50/25 14/51/25
f 20/50/26 13/52/26 14/51/26
f 21/53/27 24/54/27 2/55/27
f 21/56/28 3/57/28 35/58/28
f 19/59/29 12/60/29 37/61/29
f 15/22/30 23/39/30 22/40/30
f 18/62/31 96/35/31 98/63/31
f 98/63/32 26/64/32 18/62/32
f 97/65/33 87/4/33 13/66/33
f 13/67/34 18/68/34 26/69/34
f 97/65/35 26/70/35 99/71/35
f 35/72/36 22/73/36 21/53/36
f 22/73/37 23/74/37 21/53/37
f 3/75/38 17/45/38 19/76/38
f 31/77/39 34/78/39 15/79/39
f 31/77/40 32/80/40 33/81/40
f 20/82/41 19/83/41 17/36/41
f 20/82/42 17/36/42 96/35/42
f 18/62/43 20/82/43 96/35/43
f 29/23/44 28/84/44 12/48/44
f 87/4/45 5/2/45 29/23/45
f 25/85/46 30/46/46 35/41/46
f 31/86/47 15/22/47 35/41/47
f 30/46/48 12/48/48 28/84/48
f 30/46/49 31/86/49 35/41/49
f 30/46/50 38/87/50 37/47/50
f 28/88/51 34/89/51 33/90/51
f 28/88/52 32/91/52 30/92/52
f 36/93/53 19/83/53 37/94/53
f 36/93/54 25/95/54 35/58/54
f 36/93/55 38/96/55 39/97/55
f 36/93/56 35/58/56 3/57/56
f 3/57/57 19/83/57 36/93/57
f 25/85/58 39/98/58 30/46/58
f 36/93/59 39/97/59 25/95/59
f 29/23/60 14/99/60 13/66/60
f 14/99/61 29/23/61 12/48/61
f 87/4/62 29/23/62 13/66/62
f 42/100/7 6/101/7 40/102/7
f 43/103/63 6/101/63 88/104/63
f 102/105/5 41/106/5 88/107/5
f 101/108/64 8/109/64 42/100/64
f 27/9/65 7/13/65 40/14/65
f 40/14/66 43/7/66 27/9/66
f 41/8/5 102/110/5 100/10/5
f 100/10/67 89/11/67 27/9/67
f 89/11/68 7/13/68 27/9/68
f 101/108/69 90/111/69 8/109/69
f 43/103/63 40/102/63 6/101/63
f 88/104/4 41/106/4 43/103/4
f 42/100/70 8/112/70 6/101/70
f 36/93/71 37/94/71 38/96/71
f 28/88/51 33/90/51 32/91/51
f 28/88/72 15/113/72 34/89/72
f 30/46/73 39/98/73 38/87/73
f 31/77/74 30/114/74 32/80/74
f 31/77/40 33/81/40 34/78/40
f 3/75/75 21/115/75 17/45/75
f 97/65/76 13/66/76 26/70/76
f 98/63/77 99/116/77 26/64/77
f 21/53/78 23/74/78 24/54/78
f 20/50/79 18/117/79 13/52/79
f 12/49/80 19/118/80 20/50/80
f 17/45/81 21/115/81 2/42/81
f 15/22/82 2/37/82 24/38/82
f 16/34/83 95/119/83 96/35/83
f 16/31/84 1/120/84 4/32/84
f 4/29/85 9/26/85 93/25/85
f 11/24/86 94/28/86 93/25/86
f 15/22/87 28/84/87 29/23/87
f 90/18/88 91/21/88 10/16/88
f 9/15/89 8/19/89 10/16/89
f 6/6/90 8/19/90 9/15/90
f 89/11/91 101/121/91 42/12/91
f 4/3/92 5/2/92 88/5/92
f 1/1/93 2/37/93 5/2/93
f 44/1/94 47/3/94 48/2/94
f 48/2/95 88/5/95 87/4/95
f 47/3/96 49/6/96 88/5/96
f 86/7/97 70/9/97 84/8/97
f 84/8/98 70/9/98 100/10/98
f 89/11/99 50/13/99 85/12/99
f 50/13/100 83/14/100 85/12/100
f 49/6/101 47/3/101 52/15/101
f 52/15/102 54/17/102 53/16/102
f 90/18/103 51/19/103 53/16/103
f 54/17/104 92/20/104 53/16/104
f 53/16/105 92/20/105 91/21/105
f 104/22/106 48/2/106 72/23/106
f 54/24/107 52/26/107 93/25/107
f 54/24/108 94/28/108 92/27/108
f 47/29/109 95/30/109 93/25/109
f 59/31/110 95/33/110 47/32/110
f 59/34/111 60/36/111 96/35/111
f 48/2/112 104/22/112 103/37/112
f 104/22/113 66/39/113 105/38/113
f 104/22/114 78/41/114 65/40/114
f 103/42/115 59/44/115 44/43/115
f 60/45/116 59/44/116 103/42/116
f 73/46/117 55/48/117 80/47/117
f 55/49/118 57/51/118 63/50/118
f 63/50/119 57/51/119 56/52/119
f 64/53/120 103/55/120 105/54/120
f 64/56/121 78/58/121 46/57/121
f 62/59/122 80/61/122 55/60/122
f 104/22/123 65/40/123 66/39/123
f 61/62/31 98/63/31 96/35/31
f 98/63/32 61/62/32 69/64/32
f 97/65/124 56/66/124 87/4/124
f 56/67/125 69/69/125 61/68/125
f 97/65/126 99/71/126 69/70/126
f 78/72/127 64/53/127 65/73/127
f 65/73/128 64/53/128 66/74/128
f 46/75/129 62/76/129 60/45/129
f 74/77/130 104/79/130 77/78/130
f 74/77/131 76/81/131 75/80/131
f 63/82/132 60/36/132 62/83/132
f 63/82/133 96/35/133 60/36/133
f 61/62/134 96/35/134 63/82/134
f 72/23/135 55/48/135 71/84/135
f 87/4/136 72/23/136 48/2/136
f 68/85/137 78/41/137 73/46/137
f 74/86/138 78/41/138 104/22/138
f 73/46/139 71/84/139 55/48/139
f 73/46/140 78/41/140 74/86/140
f 73/46/141 80/47/141 81/87/141
f 71/88/142 76/90/142 77/89/142
f 71/88/143 73/92/143 75/91/143
f 79/93/144 80/94/144 62/83/144
f 79/93/145 78/58/145 68/95/145
f 79/93/146 82/97/146 81/96/146
f 79/93/147 46/57/147 78/58/147
f 46/57/148 79/93/148 62/83/148
f 68/85/149 73/46/149 82/98/149
f 79/93/150 68/95/150 82/97/150
f 72/23/151 56/66/151 57/99/151
f 57/99/152 55/48/152 72/23/152
f 87/4/153 56/66/153 72/23/153
f 85/100/100 83/102/100 49/101/100
f 86/103/154 88/104/154 49/101/154
f 102/105/98 88/107/98 84/106/98
f 101/108/155 85/100/155 51/109/155
f 70/9/156 83/14/156 50/13/156
f 83/14/157 70/9/157 86/7/157
f 84/8/98 100/10/98 102/110/98
f 100/10/158 70/9/158 89/11/158
f 89/11/159 70/9/159 50/13/159
f 101/108/160 51/109/160 90/111/160
f 86/103/154 49/101/154 83/102/154
f 88/104/97 86/103/97 84/106/97
f 85/100/161 49/101/161 51/112/161
f 79/93/162 81/96/162 80/94/162
f 71/88/142 75/91/142 76/90/142
f 71/88/163 77/89/163 104/113/163
f 73/46/164 81/87/164 82/98/164
f 74/77/165 75/80/165 73/114/165
f 74/77/131 77/78/131 76/81/131
f 46/75/166 60/45/166 64/115/166
f 97/65/167 69/70/167 56/66/167
f 98/63/168 69/64/168 99/116/168
f 64/53/169 105/54/169 66/74/169
f 63/50/170 56/52/170 61/117/170
f 55/49/171 63/50/171 62/118/171
f 60/45/172 103/42/172 64/115/172
f 67/122/173 45/123/173 106/123/173 108/122/173
f 59/34/174 96/35/174 95/119/174
f 59/31/175 47/32/175 44/120/175
f 47/29/176 93/25/176 52/26/176
f 54/24/177 93/25/177 94/28/177
f 104/22/178 72/23/178 71/84/178
f 90/18/179 53/16/179 91/21/179
f 52/15/180 53/16/180 51/19/180
f 49/6/181 52/15/181 51/19/181
f 89/11/182 85/12/182 101/121/182
f 47/3/183 88/5/183 48/2/183
f 44/1/184 48/2/184 103/37/184
f 58/124/185 45/123/185 103/37/185 104/22/185
f 67/122/185 58/124/185 104/22/185 105/38/185
f 45/123/185 67/122/185 105/38/185 103/37/185
f 107/124/185 108/122/185 106/123/185
f 58/124/186 67/122/186 108/122/186 107/124/186
f 45/123/187 58/124/187 107/124/187 106/123/187
